<?xml version="1.0" standalone="no"?>
<!DOCTYPE svg PUBLIC "-//W3C//DTD SVG 20010904//EN"
 "http://www.w3.org/TR/2001/REC-SVG-20010904/DTD/svg10.dtd">
<svg version="1.0" xmlns="http://www.w3.org/2000/svg"
 width="436.000000pt" height="436.000000pt" viewBox="0 0 436.000000 436.000000"
 preserveAspectRatio="xMidYMid meet">
<metadata>
Created by potrace 1.14, written by Peter Selinger 2001-2017
</metadata>
<g transform="translate(0.000000,436.000000) scale(0.100000,-0.100000)"
fill="#000000" stroke="none">
<path d="M168 4353 c6 -2 18 -2 25 0 6 3 1 5 -13 5 -14 0 -19 -2 -12 -5z"/>
<path d="M2298 4334 c58 -29 136 -111 153 -161 6 -18 14 -33 19 -33 5 0 19 21
30 48 25 54 28 66 29 107 1 22 9 35 29 47 26 17 21 17 -142 18 l-170 0 52 -26z"/>
<path d="M882 4049 c-32 -59 -49 -75 -63 -61 -24 23 -109 13 -109 -13 0 -8
-14 -27 -30 -43 -28 -29 -29 -32 -13 -47 16 -16 16 -18 -2 -31 -31 -23 -36
-20 -39 25 -2 29 -26 23 -32 -8 -7 -32 -19 -41 -27 -18 -2 6 -7 -6 -11 -27 -9
-47 -33 -86 -52 -86 -8 0 -17 -7 -20 -15 -4 -10 -20 -15 -44 -15 -22 0 -42 -4
-45 -10 -4 -6 7 -10 27 -10 31 -1 32 -1 14 -15 -30 -23 -125 -19 -156 5 -37
29 -57 27 -36 -4 8 -14 12 -26 7 -28 -16 -6 -20 -76 -6 -95 9 -10 14 -13 15
-5 1 32 103 -1 112 -36 9 -32 -18 -81 -47 -88 -21 -5 -33 0 -60 26 -28 27 -39
31 -62 26 -73 -18 -79 -18 -109 7 -16 13 -44 32 -62 41 l-32 17 0 -796 0 -795
23 0 c13 0 32 9 42 20 31 34 132 99 188 121 69 28 213 25 246 -5 21 -19 21
-19 21 10 0 16 -3 60 -7 97 -7 77 -11 81 -96 92 -65 9 -65 34 1 37 44 1 45 2
9 5 -29 3 -37 8 -33 19 3 9 2 12 -4 9 -17 -11 -184 136 -201 177 -6 15 -15 28
-19 28 -5 0 -11 13 -15 30 -4 17 -10 30 -14 30 -4 0 -25 23 -46 52 -38 49 -40
56 -42 128 -2 90 14 125 74 163 21 13 65 50 98 82 168 161 290 132 271 -63
-16 -155 -5 -178 101 -222 40 -17 87 -33 104 -37 18 -3 50 -16 73 -27 22 -12
51 -21 63 -20 19 1 20 -2 12 -25 l-9 -26 17 23 c10 12 31 47 48 77 l29 55 -42
85 c-40 81 -41 85 -20 80 25 -5 149 -25 160 -25 14 0 133 126 134 143 1 16 -1
16 -22 2 -23 -15 -26 -14 -50 10 -14 14 -30 25 -37 25 -7 0 -13 18 -15 43 -1
23 -7 59 -13 80 -5 20 -9 56 -8 80 2 48 -9 188 -21 261 -4 27 -5 56 -3 65 5
20 46 51 74 56 48 9 62 19 75 51 25 60 11 136 -34 182 -33 34 -93 110 -108
137 -8 15 -23 21 -58 23 -43 3 -48 1 -64 -29z m204 -983 c8 -8 11 -22 8 -30
-7 -17 11 -22 21 -6 3 5 16 15 28 22 18 9 17 5 -8 -24 -31 -38 -61 -58 -52
-36 8 22 -12 61 -28 54 -13 -4 -14 -2 -5 14 13 24 17 24 36 6z m-21 -87 c-2
-23 -30 -49 -52 -48 -15 0 -15 2 3 9 27 11 38 27 24 35 -16 10 -12 21 8 21 11
0 18 -7 17 -17z m-575 -728 c7 -13 7 -22 0 -26 -5 -3 -10 3 -10 14 0 11 -8 22
-17 24 -17 4 -17 5 -1 6 10 0 22 -8 28 -18z"/>
<path d="M3078 3672 c-30 -31 -43 -37 -66 -34 -12 2 -29 -4 -38 -12 -8 -9 -11
-16 -5 -16 5 0 12 4 16 10 10 17 35 -1 35 -26 0 -17 -6 -24 -19 -24 -11 0 -22
4 -26 10 -3 5 -13 6 -22 3 -12 -5 -15 -2 -10 10 3 9 2 17 -4 17 -12 0 -29 -42
-21 -54 2 -5 29 -6 58 -2 54 6 54 6 99 -40 24 -26 52 -64 62 -86 15 -34 21
-38 43 -33 45 11 200 88 194 97 -3 4 -9 6 -13 3 -8 -4 -60 48 -126 129 -27 32
-37 37 -78 39 -30 1 -47 7 -47 15 0 16 -11 14 -32 -6z"/>
<path d="M3550 3308 c-41 -17 -176 -73 -300 -125 -124 -52 -232 -96 -241 -96
-36 -4 -249 -103 -245 -114 3 -7 -1 -10 -9 -7 -17 7 -102 -23 -127 -43 -9 -8
-27 -16 -40 -18 -20 -3 -116 -40 -318 -126 -30 -13 -61 -30 -68 -39 -8 -8 -10
-9 -7 -2 5 10 -3 9 -32 -3 -21 -9 -48 -21 -60 -25 -80 -32 -248 -113 -213
-103 14 4 35 7 47 8 11 0 19 3 16 8 -5 8 31 23 75 32 22 5 21 3 -8 -10 -32
-15 -33 -17 -16 -27 14 -8 24 -8 37 0 15 10 17 8 13 -13 -2 -13 3 -30 12 -40
9 -8 17 -26 18 -39 0 -13 5 -22 9 -19 5 3 7 -3 5 -12 -2 -10 2 -20 8 -22 13
-4 26 49 18 74 -4 12 -3 14 3 6 50 -69 78 -93 109 -93 53 0 79 14 82 46 3 38
33 67 87 83 43 13 49 12 93 -11 42 -21 48 -30 59 -71 13 -53 7 -81 -24 -121
-37 -46 -153 -59 -153 -17 0 13 -2 13 -9 3 -7 -11 -13 -9 -30 9 -11 12 -21 32
-21 43 -1 16 -6 13 -24 -17 l-23 -38 25 -49 c14 -28 24 -52 21 -54 -2 -2 -28
1 -57 6 l-54 11 -39 -39 c-32 -33 -36 -40 -20 -40 11 0 18 3 16 7 -3 3 8 17
23 30 23 20 24 21 9 2 -16 -18 -17 -25 -7 -45 7 -13 21 -30 31 -38 13 -11 23
-38 30 -84 14 -85 6 -131 -27 -152 -13 -9 -27 -27 -30 -40 -4 -14 -11 -21 -20
-17 -8 3 -17 -5 -24 -21 -13 -36 -23 -32 -15 7 4 21 3 27 -3 18 -11 -15 -27 2
-17 19 3 6 -1 7 -9 4 -10 -4 -16 -1 -16 7 0 7 -3 10 -6 6 -3 -3 5 -20 18 -37
22 -31 23 -39 28 -274 5 -253 9 -276 50 -276 9 0 29 10 44 21 33 26 47 17 20
-12 -35 -39 -95 -63 -159 -64 -73 0 -108 19 -125 69 l-11 35 -37 -41 c-44 -49
-85 -68 -147 -68 -89 0 -146 54 -147 138 0 65 31 125 81 157 45 28 149 65 183
65 63 1 64 1 57 118 -8 161 -29 188 -140 183 -32 -1 -79 -43 -79 -69 0 -15 9
-22 34 -26 25 -5 37 -14 45 -35 27 -63 -18 -118 -87 -108 -74 12 -105 92 -62
162 47 76 146 112 285 102 81 -6 89 -3 24 7 l-35 6 12 69 c6 38 21 85 33 105
24 38 74 79 85 69 3 -3 14 2 25 11 14 13 21 14 27 5 5 -8 3 -10 -6 -4 -9 5
-11 4 -6 -3 13 -21 26 -13 26 17 0 63 -11 88 -50 110 -48 27 -74 27 -113 -2
-37 -27 -109 -47 -169 -47 -28 0 -51 8 -74 25 -34 26 -40 42 -49 136 l-5 56
59 27 c32 14 63 26 68 26 5 0 18 7 29 16 10 8 15 13 9 11 -89 -40 -327 -127
-335 -122 -17 11 -60 103 -60 129 0 25 12 33 134 85 27 12 47 24 44 27 -5 4
-53 -13 -100 -37 -22 -11 -78 -12 -78 -1 0 5 16 7 35 6 41 -4 47 11 9 20 -16
4 -24 12 -21 21 6 15 -17 28 -50 28 -12 0 -47 -10 -78 -23 -31 -12 -58 -20
-61 -17 -3 3 17 13 45 22 28 9 53 21 56 26 4 5 16 9 28 10 19 0 18 2 -6 11
-24 8 -26 12 -15 25 11 14 10 15 -10 9 -16 -6 -22 -3 -22 8 0 17 -17 21 -38 7
-11 -7 -10 -9 3 -14 9 -4 13 -3 10 3 -3 6 -1 10 4 10 6 0 11 -6 11 -14 0 -7
10 -21 23 -29 18 -13 19 -16 5 -16 -10 -1 -18 -5 -18 -11 0 -5 -7 -10 -15 -10
-9 0 -33 -9 -55 -20 -37 -19 -38 -21 -30 -52 10 -33 5 -53 -6 -24 -8 21 -24
21 -25 -1 -1 -12 -4 -9 -8 7 -6 19 -10 6 -21 -57 -7 -46 -17 -83 -21 -83 -3 0
-24 19 -46 43 -84 90 -82 88 -149 76 -32 -6 -64 -12 -71 -13 -7 -1 -16 -6 -20
-10 -4 -4 -2 -6 6 -4 17 4 40 -76 42 -147 3 -82 -59 -230 -106 -255 -32 -17
-34 -8 62 -317 67 -212 93 -278 93 -230 0 11 86 314 171 600 l20 67 196 -2
c133 -2 198 -7 200 -14 2 -7 -22 -13 -68 -16 -45 -4 -74 -11 -80 -19 -5 -8 -9
-222 -9 -475 0 -357 3 -464 13 -472 6 -5 39 -13 72 -16 200 -22 134 -34 -192
-35 -236 -1 -273 1 -273 14 0 12 14 15 69 15 46 0 72 5 80 14 8 9 10 138 9
457 l-3 444 -57 -175 c-31 -96 -89 -290 -128 -430 -76 -267 -97 -330 -110
-330 -5 0 -18 26 -30 58 -23 60 -264 785 -273 818 -2 10 -5 -35 -4 -101 0 -66
2 -108 4 -92 2 15 8 25 13 22 5 -3 7 -12 4 -19 -3 -8 -1 -17 5 -21 6 -3 11
-15 11 -26 0 -11 5 -17 10 -14 12 7 12 -69 0 -105 -6 -16 -7 -7 -3 28 4 37 2
52 -6 52 -8 0 -10 -8 -6 -19 3 -11 0 -41 -7 -68 l-13 -48 -6 65 c-3 36 -6 -59
-7 -211 l-2 -276 22 -11 c13 -6 43 -13 67 -14 25 -2 46 -8 48 -14 3 -7 -48
-11 -167 -10 -106 1 -170 5 -170 11 0 6 27 12 61 15 89 7 89 8 88 229 0 102
-4 195 -9 206 -7 17 -9 18 -9 2 -1 -20 -24 -30 -136 -59 -56 -15 -88 -30 -108
-50 -55 -55 -143 -52 -195 6 -68 76 -62 152 -62 -788 l0 -846 2180 0 2180 0 0
1465 c0 1455 0 1465 -20 1465 -11 0 -20 -5 -20 -11 0 -5 -5 -7 -11 -4 -13 8
-51 -24 -43 -37 3 -5 -11 -41 -31 -80 -37 -73 -84 -128 -109 -128 -7 0 -20
-10 -28 -22 -24 -37 -62 -18 -92 46 -14 30 -26 66 -26 79 0 30 -14 43 -60 52
-45 9 -100 51 -100 75 0 10 -7 25 -15 34 -8 8 -15 19 -15 25 0 22 -43 92 -80
130 -34 35 -41 50 -56 128 -9 48 -21 93 -26 100 -6 7 -3 13 9 16 11 3 13 5 3
5 -8 0 -49 -13 -90 -30z m-292 -319 c54 -32 82 -59 102 -100 23 -44 39 -129
29 -155 -4 -10 -8 -35 -8 -55 -1 -52 -66 -174 -119 -226 -43 -40 -45 -44 -32
-68 7 -14 19 -25 26 -25 7 0 15 -4 19 -9 3 -6 -8 -8 -27 -6 -92 11 -121 13
-109 6 17 -11 3 -17 -31 -16 -27 1 -34 -5 -21 -18 3 -4 13 -1 21 6 13 10 14 9
10 -3 -2 -8 -17 -15 -34 -16 -16 0 -52 -4 -80 -8 -50 -8 -51 -8 -72 25 -49 81
-61 110 -67 163 -4 31 -11 59 -16 62 -5 3 -9 16 -9 30 0 13 -5 24 -10 24 -6 0
-10 15 -9 33 0 17 -2 42 -6 55 -4 12 -3 22 2 22 11 0 113 94 113 104 0 4 7 14
15 22 8 9 15 30 15 48 0 18 6 39 13 48 14 19 94 70 122 79 38 13 125 1 163
-22z m-613 -79 c-10 -11 -20 -18 -23 -15 -7 6 18 35 31 35 5 0 2 -9 -8 -20z
m-250 -110 c3 -5 1 -10 -4 -10 -6 0 -11 5 -11 10 0 6 2 10 4 10 3 0 8 -4 11
-10z m-995 -89 c0 -6 -9 -9 -20 -8 -11 1 -20 5 -20 9 0 4 9 8 20 8 11 0 20 -4
20 -9z m40 -1 c0 -5 -4 -10 -10 -10 -5 0 -10 5 -10 10 0 6 5 10 10 10 6 0 10
-4 10 -10z m-174 -25 c10 -26 -1 -35 -13 -10 -6 14 -7 25 -2 25 5 0 12 -7 15
-15z m169 -45 c-3 -5 -12 -10 -18 -10 -7 0 -6 4 3 10 19 12 23 12 15 0z m1844
-326 c26 -21 31 -33 31 -69 0 -63 -41 -105 -102 -105 -35 0 -49 6 -70 28 -35
37 -42 75 -23 116 29 61 110 76 164 30z m-1183 -11 c-6 -6 -36 9 -36 18 0 5 9
4 20 -3 10 -7 18 -14 16 -15z m116 -80 c-6 -2 -9 -10 -6 -15 4 -7 2 -8 -5 -4
-13 9 -5 26 12 25 9 0 8 -2 -1 -6z m467 -284 c27 -5 69 -23 94 -39 l45 -28 19
20 c42 48 141 63 185 29 21 -17 32 -18 98 -11 41 5 98 16 125 24 28 9 53 16
58 16 4 0 8 -28 8 -62 1 -35 5 -92 9 -128 6 -60 7 -61 8 -18 2 59 11 85 23 66
7 -10 9 -10 9 2 0 9 16 22 38 29 20 8 40 19 44 25 5 7 8 4 8 -8 0 -15 3 -16
14 -7 11 9 16 5 25 -20 8 -24 8 -36 0 -46 -7 -7 -10 -16 -7 -19 3 -2 13 7 22
21 9 14 12 25 7 25 -13 0 -22 43 -10 55 7 7 8 4 4 -7 -8 -20 10 -25 19 -5 3 6
3 1 -1 -13 -5 -23 -3 -22 37 13 84 77 197 109 302 88 134 -28 211 -139 143
-206 -31 -32 -86 -34 -116 -4 -22 22 -22 30 -4 114 10 46 -20 79 -70 77 -21
-1 -47 -9 -58 -19 -26 -23 -57 -91 -56 -123 l1 -25 8 25 7 25 11 -25 11 -25 0
28 c1 16 5 26 11 22 6 -4 8 -11 5 -16 -4 -5 1 -12 9 -15 11 -4 14 -14 11 -33
-5 -22 -4 -23 4 -6 9 19 10 19 10 1 1 -18 2 -19 14 -3 10 15 15 9 31 -47 19
-67 16 -136 -6 -136 -5 0 -28 -14 -49 -31 -22 -17 -44 -27 -51 -23 -8 5 -9 2
-5 -9 4 -11 2 -14 -9 -10 -36 13 8 -90 55 -130 25 -21 43 -27 77 -27 55 0 77
10 132 63 36 36 42 38 42 20 0 -32 -99 -117 -154 -133 -71 -20 -184 -9 -237
23 -61 36 -122 102 -158 172 -23 44 -30 52 -26 30 5 -30 5 -30 -6 -5 -10 22
-13 22 -16 7 -5 -18 -5 -18 -19 0 -7 10 -14 29 -15 43 -1 17 -3 20 -6 8 -5
-20 -23 -25 -23 -7 0 6 -7 8 -16 5 -10 -4 -15 0 -13 12 1 9 0 40 -1 67 l-2 50
-9 -40 c-10 -50 -11 -306 -1 -322 4 -6 26 -13 50 -15 23 -2 43 -7 45 -13 3
-13 -393 -19 -406 -6 -5 5 11 12 41 16 33 4 53 12 57 23 3 10 3 137 -1 284 -7
266 -7 266 -29 271 -20 3 -23 0 -23 -30 0 -49 -26 -73 -77 -73 -55 0 -70 18
-67 81 2 40 -1 49 -15 49 -20 0 -53 -28 -53 -45 0 -7 9 -32 20 -56 41 -90 17
-184 -63 -255 -81 -71 -175 -87 -347 -58 -27 4 -40 1 -57 -16 -29 -26 -29 -44
-2 -71 23 -23 49 -23 284 -3 86 8 144 -7 190 -47 43 -39 58 -84 53 -167 -5
-79 -28 -132 -81 -185 -136 -136 -469 -154 -588 -31 -31 32 -34 40 -34 94 0
51 4 63 29 89 17 18 53 38 83 48 l52 16 -34 24 c-39 26 -65 69 -65 107 0 60
47 126 110 153 31 13 33 16 15 23 -30 13 -81 63 -101 101 -23 43 -23 132 -1
175 27 52 104 112 171 134 70 22 133 25 205 9z m1110 -42 c-2 -1 -13 -9 -24
-17 -19 -14 -19 -14 -6 3 7 9 18 17 24 17 6 0 8 -1 6 -3z m-49 -68 c-7 -11
-14 -19 -16 -16 -7 7 7 37 17 37 6 0 5 -9 -1 -21z m125 -149 c-3 -5 2 -10 12
-10 15 0 16 -2 3 -10 -9 -6 -17 -5 -22 3 -6 11 -2 27 8 27 3 0 2 -4 -1 -10z
m-2294 -327 c-12 -20 -14 -14 -5 12 4 9 9 14 11 11 3 -2 0 -13 -6 -23z"/>
<path d="M2532 1905 c-41 -35 -56 -102 -49 -224 6 -107 15 -139 48 -170 25
-23 86 -29 119 -11 31 17 45 77 44 200 0 99 -3 123 -23 162 -16 33 -31 49 -53
57 -44 16 -53 14 -86 -14z"/>
<path d="M3691 1544 c0 -11 3 -14 6 -6 3 7 2 16 -1 19 -3 4 -6 -2 -5 -13z"/>
<path d="M2655 1225 c-5 -2 -63 -9 -129 -16 l-118 -13 -16 -35 c-21 -50 -20
-129 2 -167 33 -56 68 -69 181 -69 88 0 107 3 149 25 71 37 108 87 114 155 5
61 -7 84 -60 111 -24 12 -96 18 -123 9z"/>
<path d="M3976 3302 c-7 -11 4 -52 14 -52 15 0 32 30 26 45 -6 16 -31 20 -40
7z"/>
<path d="M2097 3113 c-19 -3 -27 -10 -26 -21 2 -16 -2 -29 -22 -80 -5 -13 -9
-38 -9 -57 0 -18 -6 -36 -12 -38 -9 -4 -8 -6 2 -7 8 0 -5 -12 -30 -25 -25 -13
-40 -24 -35 -25 11 0 248 101 333 141 45 22 56 35 21 26 -16 -4 -18 -3 -9 8 9
10 6 15 -11 20 -17 6 -19 9 -8 16 12 7 11 9 -1 9 -9 0 -22 -6 -29 -12 -10 -11
-11 -9 -5 6 6 16 4 18 -9 13 -9 -3 -17 -2 -17 2 0 19 -79 33 -133 24z"/>
<path d="M4091 3063 c1 -34 43 -98 67 -101 12 -2 22 -10 22 -17 0 -24 30 -47
46 -34 7 6 18 8 23 4 18 -11 0 25 -27 54 -13 14 -29 38 -34 54 -6 15 -14 27
-19 27 -5 0 -9 7 -9 15 0 12 -4 14 -19 5 -13 -7 -22 -7 -26 0 -10 16 -25 11
-24 -7z"/>
<path d="M1185 3020 c-3 -5 -1 -10 4 -10 6 0 11 5 11 10 0 6 -2 10 -4 10 -3 0
-8 -4 -11 -10z"/>
<path d="M1189 2952 c5 -34 6 -35 9 -8 2 16 0 32 -5 37 -5 5 -7 -7 -4 -29z"/>
<path d="M1200 2885 c0 -14 4 -25 9 -25 4 0 6 11 3 25 -2 14 -6 25 -8 25 -2 0
-4 -11 -4 -25z"/>
<path d="M1985 2900 c-3 -6 1 -7 9 -4 18 7 21 14 7 14 -6 0 -13 -4 -16 -10z"/>
<path d="M1230 2851 c0 -13 39 -35 48 -27 3 3 0 6 -6 6 -6 0 -18 7 -26 16 -9
8 -16 11 -16 5z"/>
<path d="M1530 2710 c0 -5 5 -10 10 -10 6 0 10 5 10 10 0 6 -4 10 -10 10 -5 0
-10 -4 -10 -10z"/>
<path d="M1730 2690 c0 -5 -6 -7 -14 -4 -7 3 -20 -1 -27 -8 -8 -7 -18 -13 -24
-13 -13 0 -168 -65 -178 -75 -5 -4 -2 -24 7 -44 l15 -36 48 19 c153 62 208 90
211 105 2 9 -3 16 -13 16 -9 0 -13 5 -10 10 3 6 2 10 -4 10 -6 0 -8 7 -5 15 4
8 3 15 0 15 -3 0 -6 -4 -6 -10z m-12 -21 c-2 -3 4 -14 12 -24 13 -15 12 -19
-4 -31 -20 -14 -40 -9 -30 7 3 6 12 8 20 5 8 -3 14 -1 14 3 0 19 -30 19 -53 0
-14 -10 -33 -19 -44 -19 -13 1 -9 5 12 16 22 11 24 13 7 10 -12 -2 -20 0 -16
5 3 5 16 9 29 9 12 0 26 7 29 16 3 9 11 14 17 12 6 -2 9 -6 7 -9z m-108 -83
c0 -2 -11 -6 -25 -8 -13 -3 -22 -1 -19 3 5 9 44 13 44 5z"/>
<path d="M2090 2450 c0 -20 -45 -50 -75 -50 -8 0 -15 -4 -15 -10 0 -15 17 -12
63 11 56 29 71 51 42 63 -10 4 -15 -1 -15 -14z"/>
<path d="M2046 2431 c-4 -5 3 -7 14 -4 23 6 26 13 6 13 -8 0 -17 -4 -20 -9z"/>
<path d="M2021 1936 c2 -2 15 -9 29 -16 23 -12 24 -12 11 3 -7 10 -20 17 -29
17 -8 0 -13 -2 -11 -4z"/>
<path d="M1890 1587 c-65 -33 -85 -66 -85 -142 0 -72 20 -105 65 -105 51 0 64
30 70 152 3 60 2 112 -1 114 -3 2 -26 -7 -49 -19z"/>
</g>
</svg>
