<?xml version="1.0" standalone="no"?>
<!DOCTYPE svg PUBLIC "-//W3C//DTD SVG 20010904//EN"
 "http://www.w3.org/TR/2001/REC-SVG-20010904/DTD/svg10.dtd">
<svg version="1.0" xmlns="http://www.w3.org/2000/svg"
 width="360.000000pt" height="360.000000pt" viewBox="0 0 360.000000 360.000000"
 preserveAspectRatio="xMidYMid meet">
<metadata>
Created by potrace 1.14, written by Peter Selinger 2001-2017
</metadata>
<g transform="translate(0.000000,360.000000) scale(0.100000,-0.100000)"
fill="#000000" stroke="none">
<path d="M0 1800 l0 -1800 1800 0 1800 0 0 1800 0 1800 -1800 0 -1800 0 0
-1800z m430 642 l35 -154 39 156 38 156 48 0 48 0 38 -156 39 -156 35 154 36
153 48 3 c43 3 48 1 44 -15 -3 -10 -27 -107 -54 -215 l-48 -198 -56 0 -56 0
-34 133 c-18 72 -35 136 -38 141 -3 4 -20 -55 -40 -133 l-35 -141 -56 0 -57 0
-48 198 c-27 108 -51 205 -54 215 -4 16 1 18 44 15 l49 -3 35 -153z m750 118
l0 -40 -75 0 -75 0 0 -40 0 -40 70 0 70 0 0 -40 0 -40 -70 0 -70 0 0 -55 0
-55 75 0 75 0 0 -40 0 -40 -125 0 -125 0 0 215 0 215 125 0 125 0 0 -40z m322
30 c45 -13 78 -52 78 -92 0 -33 -24 -84 -41 -90 -7 -2 2 -18 21 -36 30 -30 32
-37 28 -83 -9 -93 -57 -119 -218 -119 l-110 0 0 215 0 215 103 0 c56 0 119 -5
139 -10z m650 -846 c53 -20 52 -18 17 -101 l-18 -42 -48 21 c-65 30 -152 30
-190 2 -15 -11 -39 -41 -53 -65 -22 -39 -25 -55 -25 -149 0 -94 3 -110 25
-148 43 -76 117 -96 238 -64 84 22 85 21 80 -54 l-3 -49 -50 -17 c-72 -24
-199 -24 -268 2 -126 47 -201 201 -183 377 16 157 93 260 226 304 41 14 200 3
252 -17z m1134 5 c38 -12 70 -22 72 -24 2 -1 -7 -28 -20 -59 -19 -48 -26 -56
-43 -51 -138 39 -171 41 -207 8 -21 -19 -23 -62 -5 -86 6 -9 48 -35 92 -58
151 -78 185 -117 185 -211 0 -93 -27 -140 -105 -181 -58 -30 -199 -35 -280
-10 l-60 19 -3 72 -3 71 63 -23 c150 -56 238 -42 238 38 0 40 -12 51 -115 106
-131 69 -175 123 -175 215 0 159 163 236 366 174z m-2826 -124 l0 -135 130 0
130 0 0 135 0 135 80 0 80 0 0 -345 0 -345 -80 0 -80 0 0 150 0 150 -130 0
-130 0 0 -150 0 -150 -75 0 -75 0 0 345 0 345 75 0 75 0 0 -135z m941 80 c9
-27 63 -179 118 -337 56 -157 101 -289 101 -292 0 -3 -36 -6 -80 -6 l-79 0
-25 78 -24 77 -123 0 -123 0 -24 -77 -23 -78 -80 0 c-43 0 -79 3 -79 7 0 4 53
159 118 345 l117 338 94 -2 94 -3 18 -50z m1069 -96 l0 -150 51 68 c29 37 81
105 117 151 l65 82 85 0 c66 0 82 -3 75 -12 -6 -7 -58 -74 -117 -149 -58 -75
-106 -141 -106 -146 0 -5 52 -92 115 -192 63 -100 115 -184 115 -187 0 -2 -38
-4 -84 -4 l-84 0 -87 140 c-47 77 -88 140 -91 140 -3 0 -16 -7 -29 -16 -24
-16 -25 -20 -25 -140 l0 -124 -75 0 -75 0 0 345 0 345 75 0 75 0 0 -151z"/>
<path d="M1362 2478 l3 -43 42 1 c46 1 73 17 73 43 0 29 -22 41 -73 41 l-48 0
3 -42z"/>
<path d="M1360 2305 l0 -55 49 0 c55 0 81 17 81 55 0 33 -36 55 -87 55 l-43 0
0 -55z"/>
<path d="M1247 1493 c-21 -71 -37 -131 -37 -135 0 -5 36 -8 80 -8 44 0 80 3
80 8 1 15 -74 262 -80 262 -3 0 -22 -57 -43 -127z"/>
</g>
</svg>
